HIERARCHY
ROOT Hips
{
  OFFSET -102.467 93.6631 130.069
  CHANNELS 6 Xposition Yposition Zposition Zrotation Xrotation Yrotation
  JOINT LeftUpLeg
  {
    OFFSET 8.64259 1.95398 -2.38835
    CHANNELS 3 Zrotation Xrotation Yrotation
    JOINT LeftLeg
    {
      OFFSET 43.7702 0 0
      CHANNELS 3 Zrotation Xrotation Yrotation
      JOINT LeftFoot
      {
        OFFSET 40.6238 0 0
        CHANNELS 3 Zrotation Xrotation Yrotation
        JOINT LeftToeBase
        {
          OFFSET 12.7242 0 0
          CHANNELS 3 Zrotation Xrotation Yrotation
          End Site
          {
            OFFSET 0 0 0
          }
        }
      }
    }
  }
  JOINT RightUpLeg
  {
    OFFSET -8.2249 1.95398 -2.59336
    CHANNELS 3 Zrotation Xrotation Yrotation
    JOINT RightLeg
    {
      OFFSET 43.5653 0 0
      CHANNELS 3 Zrotation Xrotation Yrotation
      JOINT RightFoot
      {
        OFFSET 40.6238 0 0
        CHANNELS 3 Zrotation Xrotation Yrotation
        JOINT RightToeBase
        {
          OFFSET 12.7242 0 0
          CHANNELS 3 Zrotation Xrotation Yrotation
          End Site
          {
            OFFSET 0 0 0
          }
        }
      }
    }
  }
  JOINT Spine
  {
    OFFSET 0.165834 0.87714 6.61349
    CHANNELS 3 Zrotation Xrotation Yrotation
    JOINT Spine1
    {
      OFFSET 7.38963 1.71661e-005 0
      CHANNELS 3 Zrotation Xrotation Yrotation
      JOINT Spine2
      {
        OFFSET 11.9445 1.14441e-005 0
        CHANNELS 3 Zrotation Xrotation Yrotation
        JOINT Spine3
        {
          OFFSET 14.7254 4.19617e-005 0
          CHANNELS 3 Zrotation Xrotation Yrotation
          JOINT Spine4
          {
            OFFSET 10.9679 0 0
            CHANNELS 3 Zrotation Xrotation Yrotation
            JOINT RightShoulder
            {
              OFFSET 2.46616 -1.6653 3.69651
              CHANNELS 3 Zrotation Xrotation Yrotation
              JOINT RightArm
              {
                OFFSET 13.0012 0 0
                CHANNELS 3 Zrotation Xrotation Yrotation
                JOINT RightForeArm
                {
                  OFFSET 28.7848 1.52588e-005 0
                  CHANNELS 3 Zrotation Xrotation Yrotation
                  JOINT RightHand
                  {
                    OFFSET 26.5688 1.52588e-005 0
                    CHANNELS 3 Zrotation Xrotation Yrotation
                    End Site
                    {
                      OFFSET 0 0 0
                    }
                  }
                }
              }
            }
            JOINT LeftShoulder
            {
              OFFSET 2.38034 -1.29275 -3.7523
              CHANNELS 3 Zrotation Xrotation Yrotation
              JOINT LeftArm
              {
                OFFSET 16.3182 6.10351e-005 0
                CHANNELS 3 Zrotation Xrotation Yrotation
                JOINT LeftForeArm
                {
                  OFFSET 27.0901 0 0
                  CHANNELS 3 Zrotation Xrotation Yrotation
                  JOINT LeftHand
                  {
                    OFFSET 24.5451 1.52588e-005 0
                    CHANNELS 3 Zrotation Xrotation Yrotation
                    End Site
                    {
                      OFFSET 0 0 0
                    }
                  }
                }
              }
            }
            JOINT Neck
            {
              OFFSET 5.0226 -0.0266342 0
              CHANNELS 3 Zrotation Xrotation Yrotation
              JOINT Head
              {
                OFFSET 6.69363 2.86102e-005 0
                CHANNELS 3 Zrotation Xrotation Yrotation
                End Site
                {
                  OFFSET 0 0 0
                }
              }
            }
          }
        }
      }
    }
  }
}
MOTION
Frames:	7
Frame Time:	0.0416667
-311.62 63.5284 347.008 -95.6789 -40.5391 -90.2456 -178.268 38.0333 90.9395 -111.384 12.5286 -3.78791 67.9793 12.3485 26.8313 -16.4353 -9.22393 41.963 -175.617 63.8596 98.7328 -98.8061 -32.8987 -0.798602 50.588 6.93191 -8.90556 178.904 47.1657 31.0303 -1.11551 5.00411 -91.2711 16.8317 -2.84989 -2.07832 5.16236 -2.93858 -1.95086 -17.3746 -2.09378 -2.83856 2.63804 -2.09378 -2.83857 35.2718 -47.9437 -175.424 -11.037 21.7048 101.101 155.218 -5.47058 -53.6207 5.69993 -3.35735 -60.627 -151.974 -76.2068 15.0772 -13.5743 -12.8633 34.5479 36.2434 81.2074 -30.0531 38.3127 -3.72384 -14.1496 -77.2726 24.2391 13.2067 43.6342 49.7068 47.0312 
-311.749 63.5398 347.155 -95.6888 -40.5367 -90.2355 -178.362 38.3127 91.0376 -111.416 11.5535 -3.79964 68.0581 12.9176 25.8472 -19.8365 -10.1688 41.8598 -175.494 63.5476 98.5659 -98.8906 -32.8804 -0.780787 52.7985 5.27054 -9.01414 176.916 41.2377 30.9283 -1.11007 5.00727 -91.2586 16.8289 -2.83242 -2.05528 5.15963 -2.92011 -1.92861 -17.3775 -2.08402 -2.81135 2.63514 -2.08404 -2.81135 35.3474 -47.9207 -175.359 -10.8554 21.8775 101.044 155.202 -5.50712 -53.6438 5.69224 -3.35723 -60.6831 -151.622 -76.1063 15.3823 -13.3935 -12.7283 34.5035 40.6626 81.8479 -34.5463 38.5214 -3.65208 -13.9043 -77.2439 24.3506 13.1494 43.8707 49.7757 46.806 
-312.13 63.528 347.591 -95.7183 -40.5296 -90.2078 -178.629 39.1136 91.3176 -111.32 12.3575 -3.87976 67.5894 13.1776 26.4512 -30.6073 -12.8764 40.7628 -175.101 62.611 98.0311 -98.9833 -32.8645 -0.731608 58.7903 0.751305 -8.94738 167.965 29.5837 31.4418 -1.09386 5.0142 -91.2213 16.8209 -2.78121 -1.98777 5.15157 -2.866 -1.86342 -17.386 -2.05545 -2.7316 2.62668 -2.05545 -2.7316 35.5633 -47.8575 -175.17 -10.3255 22.3772 100.868 155.153 -5.61284 -53.713 5.67063 -3.35723 -60.8457 -150.629 -75.8126 16.2385 -12.8734 -12.3453 34.3806 56.4356 83.2049 -50.5103 39.069 -3.46455 -13.2744 -77.1546 24.6754 12.9757 44.5543 49.9699 46.1543 
-312.76 63.3834 348.315 -95.7683 -40.5183 -90.1666 -179.052 40.3864 91.7618 -111.339 13.3805 -3.99159 67.0412 13.6091 27.1577 -50.1953 -15.8063 35.9798 -174.471 61.126 97.1591 -98.7253 -32.9032 -0.65853 67.0811 -5.36229 -7.94063 149.361 16.7536 30.9275 -1.06739 5.02207 -91.1596 16.8076 -2.69749 -1.87793 5.13823 -2.77751 -1.75737 -17.4 -2.00856 -2.60171 2.61272 -2.00858 -2.60172 35.9008 -47.7664 -174.869 -9.46628 23.1758 100.564 155.076 -5.78252 -53.8294 5.63686 -3.35776 -61.1093 -149.118 -75.3332 17.5288 -12.0483 -11.7496 34.1948 86.2322 83.7104 -80.5535 39.8219 -3.23063 -12.4977 -76.9935 25.2019 12.6755 45.649 50.2648 45.1064 
-313.629 63.021 349.314 -95.8408 -40.5039 -90.1163 -179.631 42.0987 92.3736 -111.577 14.57 -4.11909 66.5028 14.1157 27.9063 -76.246 -13.3435 25.5495 -173.828 59.3868 96.2119 -97.8599 -32.9568 -0.568522 75.9082 -11.3671 -5.67573 122.138 4.56553 26.3302 -1.0306 5.03303 -91.075 16.7886 -2.58159 -1.72745 5.11926 -2.65511 -1.61214 -17.4196 -1.9432 -2.4234 2.59301 -1.94322 -2.4234 36.34 -47.6625 -174.465 -8.29086 24.2448 100.111 154.971 -6.01138 -53.9945 5.59219 -3.3592 -61.4717 -147.227 -74.6712 19.1197 -10.9524 -10.9768 33.9614 113.809 82.1615 -108.376 40.6992 -3.05462 -11.8722 -76.7416 25.9212 12.2306 47.1238 50.6312 43.6853 
-314.71 62.4466 350.551 -95.938 -40.4872 -90.061 179.613 44.2131 93.1807 -111.995 15.8525 -4.25077 65.9336 14.6018 28.6065 -98.729 -0.450012 13.8828 -173.419 57.7578 95.5 -96.4153 -32.8991 -0.467651 83.8904 -16.0328 -2.51808 94.7066 -2.53446 18.6966 -0.983123 5.04727 -90.9682 16.7636 -2.43323 -1.53771 5.09413 -2.49855 -1.42911 -17.4455 -1.85869 -2.19789 2.56714 -1.85869 -2.19789 36.8608 -47.563 -173.965 -6.80702 25.5553 99.4833 154.842 -6.29434 -54.2099 5.53751 -3.36187 -61.9337 -145.091 -73.8271 20.8785 -9.61966 -10.0633 33.695 127.422 79.5031 -122.205 41.7043 -3.05014 -11.6729 -76.3736 26.8259 11.6164 48.9484 51.0359 41.9102 
-315.962 61.7239 351.984 -96.0626 -40.469 -90.0048 178.646 46.6632 94.2164 -112.454 17.1933 -4.37987 65.2197 14.9585 29.2083 -111.294 19.8264 4.73053 -173.35 56.4454 95.1738 -94.5779 -32.6136 -0.362958 90.3127 -19.0091 0.924103 75.1221 -4.38942 12.5427 -0.924413 5.06545 -90.8397 16.7317 -2.25163 -1.31002 5.06215 -2.30712 -1.20962 -17.4781 -1.75388 -1.92618 2.5345 -1.7539 -1.92618 37.4428 -47.4864 -173.38 -5.01899 27.075 98.6503 154.694 -6.62529 -54.477 5.47367 -3.36615 -62.4982 -142.833 -72.8012 22.6851 -8.08612 -9.04568 33.4106 132.128 76.8806 -127.102 42.8816 -3.31176 -12.0892 -75.8587 27.9071 10.802 51.0885 51.4431 39.8034 
